<svg height="622" viewBox="0 0 229 622" width="229" xmlns="http://www.w3.org/2000/svg"><path d="m116.026681 622v-173.934591c-.168569-11.968667-2.103028-20.269609-5.803375-24.902827-3.700347-4.633219-2.608116-14.584174 3.276694-29.852867 14.189635-14.514797 29.482485-20.940251 45.878552-19.276363 16.396067 1.663889 26.678875 9.782139 30.848425 24.35475.385041 21.194633-7.245258 31.79195-22.890898 31.79195s-25.216179-8.787159-28.711617-26.361476c-1.951803-26.404836 5.829969-43.438592 23.345316-51.101267s31.369329-9.241577 41.561948-4.736706c17.842574 8.176064 21.721319 19.742345 11.636235 34.698841-10.085084 14.956497-27.022522 14.956497-50.812313 0-16.131972-17.847199-20.994481-38.447504-14.587527-61.800914 6.406954-23.353411 17.241887-38.586258 32.504798-45.698544 14.791148-4.582342 27.480177-2.280186 38.067087 6.906468 10.586911 9.186653 7.96909 24.036772-7.853461 44.550356-10.298996 6.766557-21.243775 10.149836-32.834338 10.149836-11.590562 0-27.429879-10.311137-47.517951-30.933412-12.742219-21.628238-16.002931-38.70998-9.782139-51.245224 6.220793-12.535243 15.359461-22.230083 27.416004-29.084517 16.907143-7.996841 26.868505-3.082646 29.884086 14.742584 3.015582 17.82523-6.94578 36.12627-29.884086 54.90312-19.916942 13.802528-38.279843 20.703792-55.0887023 20.703792-16.808859 0-30.7293277-7.675395-41.7614061-23.026183-10.6088795-22.700111-10.6088795-42.193277 0-58.479497s26.1307976-20.730965 46.5657543-13.334234c17.5222841 23.066652 21.1021311 43.417779 10.7395391 61.053379-10.3625915 17.6356-26.326209 34.135153-47.8908523 49.498661-16.5336641 8.403851-31.0999158 9.222498-43.6987551 2.455941-12.59883936-6.766557-14.31476058-19.723844-5.1477637-38.871859 14.9033077-12.899473 29.7875367-14.768601 44.6526871-5.607386 14.8651504 9.161216 22.2838502 31.590179 22.2560995 67.286891-11.8865702 33.601541-30.4061471 52.491128-55.5587309 56.66876-25.15258368 4.177633-28.93593558-13.910073-11.3500557-54.263117 20.4812079-18.639252 39.1337572-27.043682 55.9576478-25.213289 16.8238907 1.830393 32.3515903 11.820662 46.5830983 29.970807 10.118369 12.525994 12.226848 22.291945 6.325436 29.297852-5.901411 7.005907-13.524195 8.698703-22.8683501 5.078387-4.0157644-3.845791-2.8120758-10.695023 3.6110661-20.547694 6.423142-9.852672 12.842236-22.286741 19.257284-37.302208-2.295218-31.269311-4.403697-50.753226-6.325436-58.451746s-1.921739-101.437076 0-281.2156685" fill="none" stroke="#000" stroke-width="4"/></svg>