<svg height="566" viewBox="0 0 326 566" width="326" xmlns="http://www.w3.org/2000/svg"><path d="m158.5 565 3.125-182.134766c-12.342448-13.993489-24.176432-20.990234-35.501953-20.990234s-20.89974 1.940104-28.7226564 5.820313c-6.3085937 4.66276-9.4628906 9.719401-9.4628906 15.169921 0 8.175782 3.4980469 34.121094 27.683594 12.847657 16.123698-14.182292 25.957682-28.448568 29.501953-42.798828 6.960937-10.08073 18.702474-17.109375 35.224609-21.085938 16.522136-3.976562 33.401042 6.039063 50.636719 30.046875 4.106771 22.558594-3.451172 35.883464-22.673828 39.974609-19.222656 4.091146-31.304688-4.704427-36.246094-26.386718-3.563802-27.591146 1.858724-48.623047 16.267578-63.095703 14.408854-14.472657 31.746094-19.957032 52.011719-16.453125 21.145833 6.729166 33.300781 17.02539 36.464844 30.888671 3.164062 13.863282-4.084636 22.567058-21.746094 26.111329-16.052083-1.761719-24.078125-10.465495-24.078125-26.111329 0-15.645833 1.500651-32.305338 4.501953-49.978515 3.605469-16.222656 17.379557-30.897787 41.322266-44.025391 23.942708-13.127604 39.222005-8.858073 45.83789 12.808594 3.259115 19.132812-2.091145 31.544922-16.050781 37.236328-13.959635 5.691406-27.57487 5.691406-40.845703 0-20.175781-8.471354-30.263672-20.883464-30.263672-37.236328 0-16.352865 2.799479-33.817708 8.398438-52.394531 9.290364-20.815105 22.093099-31.222657 38.408203-31.222657s18.017578 13.407552 5.107422 40.222657c-13.006511 9.634114-24.723308 15.893229-35.150391 18.777343-10.427083 2.884115-25.925535 2.884115-46.495355 0-15.043461-11.792968-22.565192-22.460286-22.565192-32.001953 0-14.3125-2.728515-44.041015 13.902344-55.097656s35.628906-9.705078 43.251953 10.5c5.082031 13.470052-4.555339 34.772786-28.912109 63.908203-14.115886 18.842448-34.759115 24.18099-61.929688 16.015625-27.170573-8.165364-38.464193-29.897135-33.880859-65.195312 3.925781-9.407552 13.759765-15.964193 29.501953-19.669922 15.742187-3.705729 24.722656 10.347005 26.941406 42.158203-7.464844 31.152344-20.461588 51.589193-38.990234 61.310547-27.792969 14.582031-41.058594 17.986328-45.136719 14.582031s-30.2363281-8.205078-36.5703125-28.703125c-4.2226562-13.665365-2.1705729-29.395182 6.15625-47.189453 19.1158854-22.830729 35.328125-24.588542 48.6367185-5.273438 13.308594 19.315105 3.002604 51.736329-30.9179685 97.263672-17.8710937 19.792194-24.7545573 37.52722-20.6503906 53.205078 4.1041666 15.677858 12.2207031 23.522259 24.3496094 23.533204 25.1523437-6.067709 40.8795577-15.015625 47.1816407-26.84375s8.619141-28.459636 6.951172-49.894532c-14.463542-35.071614-29.509115-52.607422-45.136719-52.607422-23.4414062 0-57.15625-.607421-61.8320312 21.927735-4.6757813 22.535156-9.2324219 38.097656 9.6269531 43.117187 12.5729166 3.346354 33.1289062-8.780599 61.6679687-36.380859 6.3085934-13.833333 6.3085934-27.61849 0-41.355469-6.3085937-13.736979-16.2825521-20.173828-29.921875-19.310547-9.4114583 3.088542-11.2610677 8.643229-5.5488281 16.664063 5.7122396 8.020833 26.2415365 29.146484 61.5878905 63.376953 14.403646 16.488281 21.605469 18.011068 21.605469 4.568359 0-13.442708 2.886719-27.042317 8.660156-40.798828 21.235677-13.559896 39.411458-13.559896 54.527344 0 22.673828 20.339844 29.033203 55.619141 18.876953 69.117188-6.770833 8.998698-16.802734 17.29427-30.095703 24.886718-9.679688.613282-19.317708-.490234-28.914063-3.310546-14.394531-4.230469-66.138671-18.605469-70.7773434-18.605469-4.6386718 0-46.8632812-12.408203-68.7128906-5.761719-21.84960937 6.646484-18.70117187 21.056641-18.70117187 24.367188 0 3.310546-1.421875 9.949218 16.11914067 18.396484 11.6940104 5.63151 28.0729166 13.272786 49.1367187 22.923828 13.7669271 11.908854 13.7669271 18.824219 0 20.746094s-30.1458333-.085938-49.1367187-6.023438c-17.55338547-7.357825-25.23763026-18.537777-23.05273442-33.539853 2.18489583-15.002077 9.86914062-26.211449 23.05273442-33.628115 22.9518229-17.628907 42.5572916-25.507813 58.8164062-23.636719 16.259115 1.871094 29.992839 6.266276 41.201172 13.185547 12.666667 10.496621 19 20.467324 19 29.912109 0 14.167178 4.511719 24.191406-21.605469 24.191406-17.411458 0-36.0911457-4.710286-56.0390624-14.130859-15.0403646-11.266927-16.8899739-22.246745-5.5488281-32.939453 11.3411458-10.692709 28.3457031-20.488281 51.0136715-29.386719 20.921875-6.111979 39.333334-6.111979 55.234375 0 23.851563 9.167969 35.94336 14.902344 49.375 25.324219 13.431641 10.421875 30.929688 23.869932 30.929688 32.804687 0 8.934756 3.433594 30.058594-30.929688 27.121094-22.908854-1.958333-35.310546-9.599609-37.205078-22.923828-2.713541-24.975261 6.607422-44.656901 27.962891-59.044922s46.016276-14.388021 73.982422 0c25.710937 16.528646 37.495442 32.856771 35.353515 48.984375-3.21289 24.191406-13.33789 30.630859-18.833984 35.867188-5.496094 5.236328-28.464844 7.740234-50.330078 5.208984-21.865235-2.53125-41.583245-8.51251-46.185547-31.015625-3.068201-15.002077-3.935389-24.842572-2.601563-29.521484-11.003906-36.963542-20.214192-56.446615-27.630859-58.449219-11.125-3.003906-22.833984-22.892578-56.443359-11-33.6093752 11.892578-33.6582034 15.355469-45.121094 20.068359-7.6419271 3.141927-19.2311198 4.211589-34.7675781 3.208985-15.7630209-4.855469-22.4986979-10.369141-20.2070313-16.541016 3.4375-9.257813 7.6796875-17.574219 23.3730469-25.339844 10.4622396-5.177083 22.5768229-7.578776 36.34375-7.205078 26.8658855-14.813802 41.3632815-26.647786 43.4921875-35.501953 3.193359-13.28125 9.751953-37.216797-5.791016-37.216797-10.361979 0-15.5429684 1.238932-15.5429684 3.716797-3.2304687 12.158854-1.9257812 21.567708 3.9140624 28.226562 5.839844 6.658855 15.352865 22.652344 28.539063 47.980469 13.277343 12.595052-.694662 17.382162-41.916016 14.361328-41.2213542-3.020833-55.9947917-22.04362-44.3203125-57.068359 32.4921875-31.588542 63.1464845-42.755208 91.9628905-33.5s50.188151 40.858724 64.115234 94.810547c-2.265624 35.610677-12.771484 54.346354-31.517578 56.207031-18.746093 1.860677-27.371093-12.014323-25.875-41.625 10.798177-30.81901 16.197266-51.172526 16.197266-61.060547s0-75.197265 0-195.92773425" fill="none" stroke="#000" stroke-width="4"/></svg>