<svg height="616" viewBox="0 0 354 616" width="354" xmlns="http://www.w3.org/2000/svg"><path d="m177 616v-191.973349c-5.981641-15.304864-8.972462-28.480024-8.972462-39.525482s4.162351-23.799172 12.487053-38.261141c13.116481-14.401508 26.342604-21.602263 39.67837-21.602263s19.758646 6.204949 19.268639 18.614845c-.46113 4.830583-3.157972 8.168135-8.090527 10.012654-7.398833 2.766779-17.967654-3.342063-27.613479-7.025236s-26.830437-13.333059-30.257594-13.333059-32.855993-8.889157-43.322106-5.708173c-10.466112 3.180983-26.126027 6.454012-28.604487 13.869088-2.4784597 7.415076-10.4390402 21.70649 4.359978 30.550978 9.866012 5.896325 25.002982 8.192048 45.410909 6.887168 18.861203-5.431586 30.108348-11.183526 33.741438-17.255821 5.449634-9.108441 7.515242-27.194025 3.580298-30.877198-2.623296-2.455449-10.335715-7.059076-23.137256-13.810883-7.860865-4.150168-13.433677-9.549719-16.718438-16.198651-4.92714-9.973399-11.650521-34.09473 2.533958-51.407402 14.18448-17.312672 36.839851-20.082158 49.467679-20.082158s23.129134-.024365 38.649627 15.470409c10.346995 10.329849 14.217417 24.418673 11.611267 42.266473-8.767784 15.87965-18.167252 23.819476-28.198404 23.819476-15.046729 0-21.403282-2.9991-24.515232-4.930275-2.074632-1.28745-8.812903-10.074041-20.214812-26.359775l-20.553214-26.199122c-12.975706-12.219489-27.269828-19.555153-42.882366-22.006992-15.6125381-2.451839-31.1835654.262149-46.713082 8.141965-16.7026454 14.91588-22.9324099 31.40285-18.6892937 49.46091s19.8998722 32.848054 46.970268 44.369983c23.8767787 5.272762 41.3879797 6.894387 52.5336047 4.864874 11.145625-2.029512 25.282277-7.846877 42.409956-17.452094 9.668385-9.043919 16.858311-17.757107 21.569776-26.139563s8.07293-22.128817 10.084395-41.239083c-4.390209-32.122971-15.79302-52.623846-34.208433-61.502625-27.62312-13.318169-41.95785-8.801173-44.139869-8.801173-2.18202 0-33.2961 8.496611-42.952754 24.811672-6.437769 10.876708-9.0551996 23.175158-7.8522915 36.895349 5.4595605 11.816113 16.7437045 18.98438 33.8524335 21.504802 17.108728 2.520422 35.369379 4.903678 54.781951 7.149768 38.827853 8.464291 64.111483 19.297992 75.850892 32.501104 11.739408 13.203112 14.683961 28.489121 8.833659 45.858027-15.915747 16.107057-28.840016 26.040299-38.772806 29.799725s-24.326628 7.756637-43.181513 11.991631c-39.82411 1.826471-67.661551-.450752-83.512325-6.83167-23.7761598-9.571376-35.0652675-23.509498-41.5111584-37.095682-4.2972607-9.057456-4.2972607-19.94409 0-32.659903 8.292215-17.616783 21.1050363-31.048656 38.4384639-40.295617 17.3334275-9.246961 42.3331905-15.721278 74.9992875-19.42295 23.376967 1.006183 41.632716 7.4805 54.767245 19.42295s17.713792 28.066202 13.737788 48.371254c-4.747561 24.406492-15.692852 40.903839-32.835872 49.492044-25.71453 12.882306-31.805591 15.138774-33.737376 15.138774s-33.400328 4.767415-55.040491 0c-21.6401636-4.767414-40.5446813-12.478862-56.2858123 0-10.4940873 8.319242-13.615512 18.011541-9.3642741 29.076897 6.5722278 17.436302 21.1587295 26.154453 43.7595049 26.154453 22.6007755 0 51.4624485-12.42614 86.5850195-37.27842 18.165446-18.737572 26.193256-35.256578 24.083429-49.557017-2.109827-14.300438-16.656622-26.135051-43.640387-35.503837-32.800678-2.178694-55.884693-7.732247-69.2520427-16.660659-13.3673503-8.928412-21.2873225-23.180881-23.7599169-42.757407 3.7043795-27.774273 17.7683877-44.234622 42.1920246-49.381047 24.423637-5.146426 53.124682-2.450937 86.103134 8.086466 27.623571 13.769824 42.106747 32.042657 43.449528 54.818499 2.014172 34.163764-26.121966 56.640458-28.7967 56.640458-2.674733 0-57.118282 3.052391-59.661715-32.543492-1.695622-23.730589 1.546274-39.538047 9.725688-47.422374 7.647484-5.738404 11.471226-20.902446 11.471226-45.492126s0-93.739339 0-207.448977" fill="none" stroke="#000" stroke-width="4"/></svg>