<svg height="616" viewBox="0 0 354 616" width="354" xmlns="http://www.w3.org/2000/svg"><path d="m177.037196 616-.037196-180.49495c.76144-6.175617-.708013-11.580035-4.40836-16.213254-3.700347-4.633218-2.608116-14.584174 3.276694-29.852866 14.189634-14.514798 29.482485-20.940252 45.878552-19.276363 16.396066 1.663888 26.678874 9.782138 30.848424 24.354749.385042 21.194634-7.245257 31.79195-22.890898 31.79195-15.64564 0-25.216179-8.787158-28.711617-26.361475-1.951802-26.404837 5.82997-43.438592 23.345317-51.101267 17.515346-7.662675 31.369329-9.241577 41.561947-4.736706 17.842574 8.176064 21.72132 19.742344 11.636235 34.698841-10.085084 14.956496-27.022521 14.956496-50.812312 0-16.131972-17.8472-20.994481-38.447504-14.587527-61.800915 6.406954-23.35341 17.241886-38.586258 32.504797-45.698543 14.791149-4.582342 27.480178-2.280187 38.067088 6.906467s7.96909 24.036773-7.853462 44.550356c-10.298996 6.766558-21.243775 10.149836-32.834337 10.149836s-27.429879-10.311137-47.517952-30.933411c-12.742218-21.628239-16.002931-38.70998-9.782138-51.245224 6.220792-12.535244 15.35946-22.230083 27.416004-29.084518 16.907143-7.99684 26.868505-3.082645 29.884086 14.742585s-6.945781 36.12627-29.884086 54.903119c-19.916943 13.802528-38.279844 20.703792-55.088703 20.703792s-30.729327-7.675394-41.761406-23.026183c-10.608879-22.700111-10.608879-42.193277 0-58.479497 10.60888-16.286219 26.130798-20.730964 46.565754-13.334234 17.522285 23.066653 21.102131 43.417779 10.73954 61.053379-10.362592 17.6356-26.326209 34.135154-47.890853 49.498662-16.533664 8.403851-31.0999155 9.222498-43.6987549 2.455941-12.5988393-6.766558-14.3147605-19.723844-5.1477636-38.87186 14.9033076-12.899472 29.7875365-14.768601 44.6526875-5.607385 14.86515 9.161215 22.28385 31.590179 22.256099 67.28689-11.88657 33.601542-30.406147 52.491129-55.5587308 56.668761-25.1525837 4.177632-28.9359356-13.910074-11.3500557-54.263118 20.4812079-18.639252 39.1337575-27.043681 55.9576475-25.213288 16.823891 1.830393 32.35159 11.820662 46.583099 29.970807 10.118369 12.525994 12.226847 22.291944 6.325436 29.297852-5.901412 7.005907-13.524195 8.698703-22.868351 5.078386-4.015764-3.845791-2.812075-10.695022 3.611066-20.547694 6.423142-9.852671 12.842237-22.286741 19.257285-37.302208-2.295218-31.269311-4.403697-50.753226-6.325436-58.451746-1.92174-7.69852-2.374346-100.437076-1.357819-278.215668" fill="none" stroke="#000" stroke-width="4"/></svg>